<svg width="22" height="22" viewBox="0 0 22 22" fill="none" xmlns="http://www.w3.org/2000/svg">
<path d="M11 22C17.0751 22 22 17.0751 22 11C22 4.92487 17.0751 0 11 0C4.92487 0 0 4.92487 0 11C0 17.0751 4.92487 22 11 22Z" fill="#ED4C5C"/>
<path d="M7.33307 9.68002L10.2664 11.7333L9.16641 8.36002L12.0997 6.23335H8.46974L7.33307 2.93335L6.23307 6.23335H2.56641L5.49974 8.36002L4.39974 11.7333L7.33307 9.68002Z" fill="#FFE62E"/>
<path d="M12.2105 12.21L11.3672 12.3934L12.1739 12.7234V13.5667L12.7239 12.9434L13.5305 13.2367L13.0539 12.54L13.5672 11.88L12.7239 12.0634L12.2105 11.3667V12.21Z" fill="#FFE62E"/>
<path d="M13.4573 9.71659L12.834 10.2666L13.6773 10.1933L14.044 10.9999L14.1907 10.1566L15.034 10.0833L14.3007 9.64326L14.484 8.79993L13.8607 9.34993L13.1273 8.90993L13.4573 9.71659Z" fill="#FFE62E"/>
<path d="M13.6773 6.85667L13.934 7.7L14.1907 6.89333H15.034L14.374 6.38L14.6307 5.53667L13.934 6.05L13.274 5.5L13.5307 6.34333L12.834 6.82L13.6773 6.85667Z" fill="#FFE62E"/>
<path d="M12.2105 3.92332V4.76665L12.7239 4.06998L13.5672 4.25332L13.0539 3.59332L13.5305 2.89665L12.7239 3.22665L12.1739 2.56665V3.40998L11.3672 3.73998L12.2105 3.92332Z" fill="#FFE62E"/>
</svg>
