<?xml version="1.0"?>
<svg xmlns="http://www.w3.org/2000/svg" xmlns:xlink="http://www.w3.org/1999/xlink" version="1.1" xml:space="preserve">
	<defs>

    <symbol id="tg" width="100%" height="100%" viewBox="0 0 24 24">
        <path fill-rule="evenodd" clip-rule="evenodd" d="M12 24C18.6274 24 24 18.6274 24 12C24 5.37258 18.6274 0 12 0C5.37258 0 0 5.37258 0 12C0 18.6274 5.37258 24 12 24ZM12.2628 8.57623C11.1862 9.04718 9.04219 10.0179 5.82162 11.4788C5.30633 11.6999 5.03029 11.9113 5.00268 12.1227C4.96193 12.4803 5.39038 12.6192 5.96836 12.8065C6.04294 12.8307 6.12002 12.8557 6.19889 12.882C6.76939 13.0743 7.52392 13.2953 7.91959 13.3049C8.27845 13.3145 8.67412 13.1608 9.1158 12.8436C12.1247 10.7195 13.6706 9.64307 13.7718 9.62385C13.8454 9.60462 13.9374 9.5854 14.0019 9.64307C14.0663 9.70074 14.0663 9.81607 14.0571 9.8449C14.0132 10.036 12.2181 11.7766 11.4012 12.5687C11.1908 12.7728 11.0453 12.9139 11.0113 12.9493C10.925 13.0421 10.8372 13.13 10.7527 13.2144C10.2245 13.7425 9.82812 14.1388 10.7721 14.785C11.2012 15.081 11.5473 15.3276 11.8882 15.5705C12.3001 15.8641 12.7044 16.1521 13.2381 16.515C13.3639 16.6013 13.4842 16.6908 13.6017 16.778C14.0601 17.1186 14.4737 17.426 14.9864 17.3801C15.2809 17.3512 15.5845 17.0629 15.741 16.1979C16.109 14.1603 16.8267 9.72957 16.9924 7.90345C17.0108 7.74967 16.9924 7.54784 16.974 7.45173C16.9556 7.35561 16.928 7.23067 16.8175 7.13456C16.6795 7.01922 16.4771 7 16.3851 7C15.971 7.00961 15.3269 7.24028 12.2628 8.57623Z" fill="currentColor"/>
    </symbol>

    <symbol id="house" width="100%" height="100%" viewBox="0 0 16 16">
        <path d="M8.70711 0.292893C8.31658 -0.0976311 7.68342 -0.0976311 7.29289 0.292893L0.292893 7.29289C-0.0976311 7.68342 -0.0976311 8.31658 0.292893 8.70711C0.683417 9.09763 1.31658 9.09763 1.70711 8.70711L2 8.41421V15C2 15.5523 2.44772 16 3 16H5C5.55228 16 6 15.5523 6 15V13C6 12.4477 6.44772 12 7 12H9C9.55229 12 10 12.4477 10 13V15C10 15.5523 10.4477 16 11 16H13C13.5523 16 14 15.5523 14 15V8.41421L14.2929 8.70711C14.6834 9.09763 15.3166 9.09763 15.7071 8.70711C16.0976 8.31658 16.0976 7.68342 15.7071 7.29289L8.70711 0.292893Z" fill="currentColor"/>
    </symbol>

    <symbol id="ok" width="100%" height="100%" viewBox="0 0 24 24">
        <path d="M12.0108 9.94543C13.1567 9.94126 14.0693 9.02079 14.0651 7.87247C14.0609 6.72366 13.1464 5.80958 12 5.80859C10.8441 5.80737 9.92091 6.73839 9.92975 7.89751C9.93834 9.04166 10.8613 9.94961 12.0108 9.94543Z" fill="currentColor"/>
        <path d="M12 0C5.37256 0 0 5.37281 0 12C0 18.6272 5.37256 24 12 24C18.6274 24 24 18.6272 24 12C24 5.37281 18.6274 0 12 0ZM12.0172 3.64923C14.3546 3.65561 16.2306 5.56751 16.2186 7.93068C16.2068 10.2393 14.3001 12.1105 11.9666 12.1026C9.65696 12.0948 7.76274 10.1799 7.77649 7.8666C7.7895 5.52798 9.68471 3.64284 12.0172 3.64923ZM16.7514 13.7634C16.2346 14.2939 15.6124 14.6779 14.9215 14.9458C14.2684 15.1989 13.5527 15.3264 12.8441 15.4113C12.9514 15.5277 13.0017 15.5849 13.0685 15.6517C14.03 16.6183 14.9961 17.58 15.9544 18.5494C16.281 18.8798 16.349 19.2894 16.1692 19.6731C15.9731 20.093 15.5328 20.3689 15.101 20.3392C14.8275 20.3203 14.6141 20.1846 14.4248 19.9938C13.699 19.2636 12.9595 18.5464 12.249 17.8025C12.0415 17.5859 11.9423 17.6272 11.7594 17.8152C11.0294 18.567 10.2875 19.3068 9.54132 20.0426C9.20618 20.3731 8.80745 20.433 8.41854 20.244C8.00532 20.0441 7.74261 19.6221 7.76274 19.1975C7.77698 18.9113 7.91791 18.6918 8.11482 18.4958C9.06672 17.5459 10.0157 16.593 10.9649 15.6409C11.028 15.5778 11.0864 15.5108 11.178 15.4125C9.88334 15.2773 8.71587 14.9586 7.71634 14.1771C7.5921 14.0798 7.46418 13.986 7.35124 13.877C6.91347 13.4569 6.86952 12.9755 7.21547 12.48C7.51182 12.0557 8.00876 11.9423 8.52559 12.1861C8.62576 12.233 8.72102 12.2924 8.81236 12.3553C10.6749 13.6352 13.2338 13.6703 15.1037 12.4125C15.2888 12.2711 15.4869 12.1547 15.7165 12.096C16.1624 11.9811 16.5788 12.1454 16.8179 12.5357C17.0917 12.9819 17.0885 13.4169 16.7514 13.7634Z" fill="currentColor"/>
    </symbol>

    <symbol id="yt" width="100%" height="100%" viewBox="0 0 24 24">
        <path d="M10.5049 14.2483L14.4083 12.0001L10.5049 9.75195V14.2483Z" fill="currentColor"/>
        <path d="M12 0C5.3736 0 0 5.3736 0 12C0 18.6264 5.3736 24 12 24C18.6264 24 24 18.6264 24 12C24 5.3736 18.6264 0 12 0ZM19.4982 12.0123C19.4982 12.0123 19.4982 14.4459 19.1895 15.6194C19.0164 16.2618 18.5099 16.7682 17.8676 16.9411C16.6941 17.25 12 17.25 12 17.25C12 17.25 7.31818 17.25 6.13239 16.9288C5.49005 16.756 4.98358 16.2493 4.81055 15.607C4.50165 14.4459 4.50165 12 4.50165 12C4.50165 12 4.50165 9.56653 4.81055 8.39301C4.9834 7.75067 5.50232 7.23175 6.13239 7.0589C7.30591 6.75 12 6.75 12 6.75C12 6.75 16.6941 6.75 17.8676 7.07117C18.5099 7.24402 19.0164 7.75067 19.1895 8.39301C19.5106 9.56653 19.4982 12.0123 19.4982 12.0123Z" fill="currentColor"/>
    </symbol>

    <symbol id="rt" width="100%" height="100%" viewBox="0 0 24 24">
        <path fill-rule="evenodd" clip-rule="evenodd" d="M12 24C18.6274 24 24 18.6274 24 12C24 5.37258 18.6274 0 12 0C5.37258 0 0 5.37258 0 12C0 18.6274 5.37258 24 12 24ZM21.0002 5.49432C21.0002 6.31961 20.3312 6.98865 19.5059 6.98865C18.6806 6.98865 18.0116 6.31961 18.0116 5.49432C18.0116 4.66903 18.6806 4 19.5059 4C20.3312 4 21.0002 4.66903 21.0002 5.49432ZM5 6.85067H7.75875V6.85071H7.80448H15.2991C16.9751 6.85071 18.3337 8.20936 18.3337 9.88533V10.69V11.4946C18.3337 12.8697 17.4191 14.0312 16.1649 14.4039L18.9538 18.2537L15.8043 18.2537L13.3129 14.5292H7.80448H7.75875V18.2535H5V6.85067ZM15.2991 12.0464H7.80448V9.33358L15.2991 9.33358C15.6038 9.33358 15.8508 9.58061 15.8508 9.88533V10.69V11.4946C15.8508 11.7993 15.6038 12.0464 15.2991 12.0464Z" fill="currentColor"/>
    </symbol>

    <symbol id="inst" width="100%" height="100%" viewBox="0 0 24 24">
        <path d="M14.2969 12C14.2969 13.2686 13.2686 14.2969 12 14.2969C10.7314 14.2969 9.70312 13.2686 9.70312 12C9.70312 10.7314 10.7314 9.70312 12 9.70312C13.2686 9.70312 14.2969 10.7314 14.2969 12Z" fill="currentColor"/>
        <path d="M17.3713 7.93622C17.2609 7.63702 17.0848 7.36621 16.8559 7.14392C16.6336 6.91504 16.363 6.73889 16.0636 6.62848C15.8208 6.53418 15.4561 6.42194 14.7842 6.39136C14.0575 6.35822 13.8396 6.35107 11.9998 6.35107C10.1597 6.35107 9.94183 6.35803 9.21527 6.39117C8.54346 6.42194 8.17853 6.53418 7.93591 6.62848C7.63654 6.73889 7.36572 6.91504 7.14362 7.14392C6.91473 7.36621 6.73859 7.63684 6.62799 7.93622C6.53369 8.17902 6.42145 8.54395 6.39087 9.21576C6.35773 9.94232 6.35059 10.1602 6.35059 12.0002C6.35059 13.8401 6.35773 14.058 6.39087 14.7847C6.42145 15.4565 6.53369 15.8213 6.62799 16.0641C6.73859 16.3635 6.91455 16.6341 7.14343 16.8564C7.36572 17.0853 7.63635 17.2614 7.93573 17.3718C8.17853 17.4663 8.54346 17.5786 9.21527 17.6091C9.94183 17.6423 10.1595 17.6492 11.9996 17.6492C13.8398 17.6492 14.0577 17.6423 14.7841 17.6091C15.4559 17.5786 15.8208 17.4663 16.0636 17.3718C16.6646 17.14 17.1395 16.665 17.3713 16.0641C17.4656 15.8213 17.5779 15.4565 17.6086 14.7847C17.6418 14.058 17.6487 13.8401 17.6487 12.0002C17.6487 10.1602 17.6418 9.94232 17.6086 9.21576C17.5781 8.54395 17.4658 8.17902 17.3713 7.93622ZM11.9998 15.5384C10.0455 15.5384 8.46124 13.9543 8.46124 12.0001C8.46124 10.0458 10.0455 8.46173 11.9998 8.46173C13.9539 8.46173 15.5381 10.0458 15.5381 12.0001C15.5381 13.9543 13.9539 15.5384 11.9998 15.5384ZM15.678 9.14874C15.2213 9.14874 14.8511 8.7785 14.8511 8.32184C14.8511 7.86517 15.2213 7.49493 15.678 7.49493C16.1346 7.49493 16.5049 7.86517 16.5049 8.32184C16.5047 8.7785 16.1346 9.14874 15.678 9.14874Z" fill="currentColor"/>
        <path d="M12 0C5.3736 0 0 5.3736 0 12C0 18.6264 5.3736 24 12 24C18.6264 24 24 18.6264 24 12C24 5.3736 18.6264 0 12 0ZM18.8491 14.8409C18.8157 15.5744 18.6991 16.0752 18.5288 16.5135C18.1708 17.4391 17.4391 18.1708 16.5135 18.5288C16.0754 18.6991 15.5744 18.8156 14.8411 18.8491C14.1063 18.8826 13.8715 18.8906 12.0002 18.8906C10.1287 18.8906 9.8941 18.8826 9.15912 18.8491C8.42578 18.8156 7.9248 18.6991 7.48663 18.5288C7.02667 18.3558 6.61029 18.0846 6.26605 17.7339C5.91559 17.3899 5.64441 16.9733 5.47137 16.5135C5.30109 16.0754 5.18445 15.5744 5.15112 14.8411C5.11725 14.1061 5.10938 13.8713 5.10938 12C5.10938 10.1287 5.11725 9.89392 5.15094 9.15912C5.18427 8.4256 5.30072 7.9248 5.47101 7.48645C5.64404 7.02667 5.91541 6.61011 6.26605 6.26605C6.61011 5.91541 7.02667 5.64423 7.48645 5.47119C7.9248 5.3009 8.4256 5.18445 9.15912 5.15094C9.89392 5.11743 10.1287 5.10938 12 5.10938C13.8713 5.10938 14.1061 5.11743 14.8409 5.15112C15.5744 5.18445 16.0752 5.3009 16.5135 5.47101C16.9733 5.64404 17.3899 5.91541 17.7341 6.26605C18.0846 6.61029 18.356 7.02667 18.5288 7.48645C18.6993 7.9248 18.8157 8.4256 18.8492 9.15912C18.8828 9.89392 18.8906 10.1287 18.8906 12C18.8906 13.8713 18.8828 14.1061 18.8491 14.8409Z" fill="currentColor"/>
    </symbol>

    <symbol id="fb" width="100%" height="100%" viewBox="0 0 24 24">
        <path d="M24 12C24 5.37188 18.6281 0 12 0C5.37188 0 0 5.37188 0 12C0 18.6281 5.37188 24 12 24C12.0703 24 12.1406 24 12.2109 23.9953V14.6578H9.63281V11.6531H12.2109V9.44062C12.2109 6.87656 13.7766 5.47969 16.0641 5.47969C17.1609 5.47969 18.1031 5.55938 18.375 5.59688V8.27813H16.8C15.5578 8.27813 15.3141 8.86875 15.3141 9.73594V11.6484H18.2906L17.9016 14.6531H15.3141V23.5359C20.3297 22.0969 24 17.4797 24 12Z" fill="currentColor"/>
    </symbol>

    <symbol id="tw" width="100%" height="100%" viewBox="0 0 24 24">
        <path d="M12 0C5.3736 0 0 5.3736 0 12C0 18.6264 5.3736 24 12 24C18.6264 24 24 18.6264 24 12C24 5.3736 18.6264 0 12 0ZM17.4791 9.35632C17.4844 9.47443 17.4869 9.59308 17.4869 9.71228C17.4869 13.3519 14.7166 17.5488 9.65021 17.549H9.65039H9.65021C8.09473 17.549 6.64728 17.0931 5.42834 16.3118C5.64386 16.3372 5.86322 16.3499 6.08533 16.3499C7.37585 16.3499 8.56348 15.9097 9.50629 15.1708C8.30054 15.1485 7.28394 14.3522 6.93311 13.2578C7.10101 13.29 7.27368 13.3076 7.45074 13.3076C7.70215 13.3076 7.94568 13.2737 8.17712 13.2105C6.91681 12.9582 5.96741 11.8444 5.96741 10.5106C5.96741 10.4982 5.96741 10.487 5.96777 10.4755C6.33893 10.6818 6.76337 10.806 7.21527 10.8199C6.47571 10.3264 5.98956 9.48285 5.98956 8.52722C5.98956 8.02258 6.12598 7.5498 6.36255 7.14276C7.72083 8.80939 9.75073 9.90546 12.0399 10.0206C11.9927 9.81885 11.9683 9.60864 11.9683 9.39258C11.9683 7.87207 13.2019 6.63849 14.723 6.63849C15.5153 6.63849 16.2308 6.97339 16.7335 7.50879C17.361 7.38501 17.9502 7.15576 18.4825 6.84027C18.2765 7.48315 17.84 8.02258 17.2712 8.36371C17.8284 8.29706 18.3594 8.14929 18.8529 7.92993C18.4843 8.48236 18.0168 8.96759 17.4791 9.35632Z" fill="currentColor"/>
    </symbol>

    <symbol id="vk" width="100%" height="100%" viewBox="0 0 24 24">
        <path d="M12 0C5.37281 0 0 5.37256 0 12C0 18.6274 5.37281 24 12 24C18.6272 24 24 18.6274 24 12C24 5.37256 18.6272 0 12 0ZM18.087 13.2978C18.6463 13.8441 19.2381 14.3583 19.7402 14.961C19.9626 15.2277 20.1723 15.5034 20.3319 15.8135C20.5597 16.2557 20.354 16.7406 19.9582 16.7669L17.4997 16.7664C16.8648 16.8189 16.3595 16.5628 15.9335 16.1287C15.5935 15.7828 15.278 15.4133 14.9505 15.0556C14.8167 14.9087 14.6757 14.7705 14.5078 14.6617C14.1726 14.4437 13.8815 14.5105 13.6895 14.8606C13.4938 15.2169 13.4491 15.6117 13.4304 16.0082C13.4037 16.5879 13.2288 16.7394 12.6472 16.7666C11.4044 16.8248 10.2251 16.6362 9.12908 16.0097C8.16221 15.457 7.41385 14.677 6.76174 13.7938C5.49189 12.0722 4.51937 10.1826 3.64554 8.23881C3.44888 7.80104 3.59276 7.56681 4.0757 7.55773C4.87808 7.54226 5.68045 7.54423 6.48282 7.55699C6.80937 7.56215 7.02543 7.74899 7.1509 8.05713C7.58449 9.12393 8.11605 10.1389 8.78216 11.0803C8.95967 11.3309 9.14087 11.5809 9.39892 11.7579C9.68372 11.9534 9.90077 11.8888 10.0351 11.5708C10.121 11.3688 10.1581 11.1527 10.1767 10.9361C10.2406 10.1944 10.2482 9.45293 10.1377 8.71415C10.069 8.25183 9.80894 7.95327 9.34809 7.86586C9.11337 7.82142 9.14774 7.73451 9.26191 7.60045C9.46005 7.36868 9.64567 7.22529 10.0167 7.22529L12.7943 7.2248C13.232 7.31073 13.3303 7.50715 13.3897 7.94811L13.3921 11.0348C13.387 11.2055 13.4778 11.7113 13.7842 11.823C14.0297 11.904 14.1918 11.7071 14.3386 11.5517C15.0047 10.8448 15.4793 10.0105 15.9043 9.14701C16.0919 8.7662 16.2537 8.37213 16.4108 7.97733C16.5277 7.6854 16.7094 7.54177 17.0389 7.54668L19.7136 7.54987C19.7924 7.54987 19.8725 7.55061 19.9506 7.56411C20.4014 7.64121 20.5248 7.83517 20.3854 8.27491C20.1659 8.96581 19.7394 9.54132 19.3225 10.1183C18.8757 10.736 18.3991 11.3322 17.9567 11.9526C17.5501 12.5198 17.5822 12.8053 18.087 13.2978Z" fill="currentColor"/>
    </symbol>
    
    <symbol id="youtube" width="100%" height="100%" viewBox="0 0 164 132">
        <path d="M131.705 31.2748C131.108 29.0956 129.945 27.1088 128.33 25.5124C126.715 23.916 124.705 22.7656 122.501 22.1758C114.43 20 81.9481 20 81.9481 20C81.9481 20 49.4647 20.0659 41.394 22.2417C39.1894 22.8315 37.1796 23.982 35.5648 25.5784C33.9499 27.1749 32.7863 29.1617 32.1898 31.341C29.7486 45.5166 28.8016 67.1168 32.2568 80.7252C32.8534 82.9044 34.017 84.8912 35.6319 86.4876C37.2467 88.084 39.2565 89.2344 41.461 89.8242C49.5317 92 82.0144 92 82.0144 92C82.0144 92 114.497 92 122.567 89.8242C124.771 89.2344 126.781 88.0841 128.396 86.4877C130.011 84.8913 131.175 82.9045 131.771 80.7252C134.346 66.5296 135.14 44.9431 131.705 31.2752V31.2748Z" fill="#FF0000"/>
        <path d="M71.6094 71.4283L98.556 55.9998L71.6098 40.5713L71.6094 71.4283Z" fill="white"/>
    </symbol>

    <symbol id="user" width="100%" height="100%" viewBox="0 0 14 14">
        <path d="M7 0C4.96456 0 3.30859 1.65596 3.30859 3.69141C3.30859 5.72685 4.96456 7.38281 7 7.38281C9.03544 7.38281 10.6914 5.72685 10.6914 3.69141C10.6914 1.65596 9.03544 0 7 0Z" fill="currentColor"/>
        <path d="M11.5928 9.79439C10.5822 8.76824 9.24243 8.20312 7.82031 8.20312H6.17969C4.75759 8.20312 3.4178 8.76824 2.40718 9.79439C1.4015 10.8155 0.847656 12.1634 0.847656 13.5898C0.847656 13.8164 1.0313 14 1.25781 14H12.7422C12.9687 14 13.1523 13.8164 13.1523 13.5898C13.1523 12.1634 12.5985 10.8155 11.5928 9.79439Z" fill="currentColor"/>
    </symbol>

    <symbol id="comment" width="100%" height="100%" viewBox="0 0 14 14">
        <path d="M2.03836 13.1632H1.04638L1.74781 12.4618C2.12601 12.0836 2.36219 11.5917 2.42568 11.0581C0.806068 9.99521 0 8.45544 0 6.84123C0 3.86318 2.7371 0.836792 7.02372 0.836792C11.5649 0.836792 14 3.62164 14 6.58032C14 9.5585 11.5392 12.3415 7.02372 12.3415C6.23272 12.3415 5.40731 12.2359 4.67038 12.0421C3.97279 12.7576 3.0276 13.1632 2.03836 13.1632Z" fill="currentColor"/>
    </symbol>

    <symbol id="building" width="100%" height="100%" viewBox="0 0 14 14">
        <path d="M13.5898 10.0898H13.0977V9.1875C13.0977 8.96098 12.914 8.77734 12.6875 8.77734C12.461 8.77734 12.2773 8.96098 12.2773 9.1875V10.0898H11.7305V14H13.5898C13.8164 14 14 13.8164 14 13.5898V10.5C14 10.2735 13.8164 10.0898 13.5898 10.0898Z" fill="currentColor"/>
        <path d="M2.26953 10.0898H1.72266V9.1875C1.72266 8.96098 1.53902 8.77734 1.3125 8.77734C1.08598 8.77734 0.902344 8.96098 0.902344 9.1875V10.0898H0.410156C0.183641 10.0898 0 10.2735 0 10.5V13.5898C0 13.8164 0.183641 14 0.410156 14H2.26953V10.0898Z" fill="currentColor"/>
        <path d="M3.08984 14H5.05859V11.8125C5.05859 11.586 5.24223 11.4023 5.46875 11.4023H8.53125C8.75777 11.4023 8.94141 11.586 8.94141 11.8125V14H10.9102C10.9102 13.322 10.9102 1.03614 10.9102 0.410156C10.9102 0.183641 10.7265 0 10.5 0H3.5C3.27348 0 3.08984 0.183641 3.08984 0.410156V14ZM5.90625 9.59766H5.46875C5.24223 9.59766 5.05859 9.41402 5.05859 9.1875C5.05859 8.96098 5.24223 8.77734 5.46875 8.77734H5.90625C6.13277 8.77734 6.31641 8.96098 6.31641 9.1875C6.31641 9.41402 6.13277 9.59766 5.90625 9.59766ZM5.90625 7.84766H5.46875C5.24223 7.84766 5.05859 7.66402 5.05859 7.4375C5.05859 7.21098 5.24223 7.02734 5.46875 7.02734H5.90625C6.13277 7.02734 6.31641 7.21098 6.31641 7.4375C6.31641 7.66402 6.13277 7.84766 5.90625 7.84766ZM5.90625 6.09766H5.46875C5.24223 6.09766 5.05859 5.91402 5.05859 5.6875C5.05859 5.46098 5.24223 5.27734 5.46875 5.27734H5.90625C6.13277 5.27734 6.31641 5.46098 6.31641 5.6875C6.31641 5.91402 6.13277 6.09766 5.90625 6.09766ZM5.90625 4.34766H5.46875C5.24223 4.34766 5.05859 4.16402 5.05859 3.9375C5.05859 3.71098 5.24223 3.52734 5.46875 3.52734H5.90625C6.13277 3.52734 6.31641 3.71098 6.31641 3.9375C6.31641 4.16402 6.13277 4.34766 5.90625 4.34766ZM8.53125 9.59766H8.09375C7.86723 9.59766 7.68359 9.41402 7.68359 9.1875C7.68359 8.96098 7.86723 8.77734 8.09375 8.77734H8.53125C8.75777 8.77734 8.94141 8.96098 8.94141 9.1875C8.94141 9.41402 8.75777 9.59766 8.53125 9.59766ZM8.53125 7.84766H8.09375C7.86723 7.84766 7.68359 7.66402 7.68359 7.4375C7.68359 7.21098 7.86723 7.02734 8.09375 7.02734H8.53125C8.75777 7.02734 8.94141 7.21098 8.94141 7.4375C8.94141 7.66402 8.75777 7.84766 8.53125 7.84766ZM8.53125 6.09766H8.09375C7.86723 6.09766 7.68359 5.91402 7.68359 5.6875C7.68359 5.46098 7.86723 5.27734 8.09375 5.27734H8.53125C8.75777 5.27734 8.94141 5.46098 8.94141 5.6875C8.94141 5.91402 8.75777 6.09766 8.53125 6.09766ZM8.53125 4.34766H8.09375C7.86723 4.34766 7.68359 4.16402 7.68359 3.9375C7.68359 3.71098 7.86723 3.52734 8.09375 3.52734H8.53125C8.75777 3.52734 8.94141 3.71098 8.94141 3.9375C8.94141 4.16402 8.75777 4.34766 8.53125 4.34766ZM5.25 1.77734H8.75C8.97652 1.77734 9.16016 1.96098 9.16016 2.1875C9.16016 2.41402 8.97652 2.59766 8.75 2.59766H5.25C5.02348 2.59766 4.83984 2.41402 4.83984 2.1875C4.83984 1.96098 5.02348 1.77734 5.25 1.77734Z" fill="currentColor"/>
        <path d="M5.87891 14H8.12109V12.2227H5.87891V14Z" fill="currentColor"/>
    </symbol>

    <symbol id="media-video" width="100%" height="100%" viewBox="0 0 18 18">
        <path fill-rule="evenodd" clip-rule="evenodd" d="M9 18C13.9706 18 18 13.9706 18 9C18 4.02944 13.9706 0 9 0C4.02944 0 0 4.02944 0 9C0 13.9706 4.02944 18 9 18ZM7.78277 4.99043L13.4265 8.12584C14.1123 8.50685 14.1123 9.49315 13.4265 9.87416L7.78277 13.0096C6.98293 13.4539 6 12.8756 6 11.9606V6.03942C6 5.12444 6.98293 4.54607 7.78277 4.99043Z" fill="currentColor"/>
    </symbol>

    <symbol id="media-foto" width="100%" height="100%" viewBox="0 0 22 22">
        <path d="M2.83398 9.83331C2.83398 7.91943 2.83611 6.58461 2.97151 5.57747C3.10305 4.59911 3.34365 4.08101 3.71266 3.71199C4.08168 3.34298 4.59978 3.10238 5.57815 2.97084C6.58528 2.83544 7.9201 2.83331 9.83399 2.83331H12.1673C14.0812 2.83331 15.416 2.83544 16.4232 2.97084C17.4015 3.10238 17.9196 3.34298 18.2886 3.71199C18.6577 4.08101 18.8983 4.59911 19.0298 5.57747C19.1652 6.58461 19.1673 7.91943 19.1673 9.83331V12.1666C19.1673 14.0805 19.1652 15.4154 19.0298 16.4225C18.8983 17.4009 18.6577 17.919 18.2886 18.288C17.9196 18.657 17.4015 18.8976 16.4232 19.0291C15.416 19.1645 14.0812 19.1666 12.1673 19.1666H9.83398C7.9201 19.1666 6.58528 19.1645 5.57814 19.0291C4.59978 18.8976 4.08168 18.657 3.71266 18.288C3.34365 17.919 3.10305 17.4009 2.97151 16.4225C2.83611 15.4154 2.83398 14.0805 2.83398 12.1666V9.83331Z" fill="rgba(0, 0, 0, 0)" stroke="currentColor" stroke-width="2"/>
        <path fill-rule="evenodd" clip-rule="evenodd" d="M3.00556 3.00489C1.83398 4.17647 1.83398 6.06208 1.83398 9.83332V12.1667C1.83398 15.9379 1.83398 17.8235 3.00556 18.9951C4.17713 20.1667 6.06275 20.1667 9.83399 20.1667H12.1673C15.9386 20.1667 17.8242 20.1667 18.9957 18.9951C20.1673 17.8235 20.1673 15.9379 20.1673 12.1667V9.83332C20.1673 7.07515 20.1673 5.3256 19.709 4.12634V15.5833C18.8286 15.5833 17.9842 15.2336 17.3617 14.611L16.6727 13.922L16.6727 13.922C16.1224 13.3717 15.8473 13.0966 15.55 12.9504C14.9934 12.6766 14.3412 12.6766 13.7846 12.9504C13.4874 13.0966 13.2122 13.3717 12.662 13.922L12.5582 14.0257C12.1009 14.4831 11.8723 14.7117 11.6392 14.7853C11.3171 14.8871 10.9654 14.8194 10.7041 14.6052C10.5151 14.4503 10.3877 14.1531 10.1329 13.5587L10.084 13.4444L10.084 13.4444L10.084 13.4444C9.48608 12.0493 9.18714 11.3518 8.71262 11.0241C8.25161 10.7057 7.67819 10.5952 7.1319 10.7196C6.5696 10.8477 6.03297 11.3843 4.95971 12.4576L3.20898 14.2083V2.81915C3.13881 2.87754 3.07107 2.93939 3.00556 3.00489Z" fill="currentColor"/>
        <ellipse cx="13.7493" cy="8.25002" rx="1.83333" ry="1.83333" fill="currentColor"/>
    </symbol>

    <symbol id="media-awards" width="100%" height="100%" viewBox="0 0 18 18">
        <path d="M17.3844 1.84959C15.8004 1.33029 11.7 -0.0133989 11.7 0.000100982C11.7 0.716181 11.4155 1.40293 10.9092 1.90928C10.4028 2.41562 9.71608 2.70009 9 2.70009C8.28392 2.70009 7.59716 2.41562 7.09081 1.90928C6.58447 1.40293 6.3 0.716181 6.3 0.000100982C6.3 -0.0133989 2.19961 1.33029 0.614712 1.84959C0.435144 1.90845 0.278883 2.02277 0.168421 2.17609C0.0579595 2.32941 -0.00100586 2.51382 1.29841e-05 2.70279V6.04717C5.07482e-05 6.18387 0.0312312 6.31878 0.0911878 6.44163C0.151144 6.56449 0.238302 6.67208 0.346044 6.75622C0.453786 6.84037 0.579281 6.89886 0.713005 6.92727C0.846729 6.95568 0.985167 6.95325 1.11781 6.92016L3.60001 6.30007V17.1C3.60001 17.3387 3.69483 17.5676 3.86361 17.7364C4.03239 17.9052 4.26131 18 4.50001 18H13.5C13.7387 18 13.9676 17.9052 14.1364 17.7364C14.3052 17.5676 14.4 17.3387 14.4 17.1V6.30007L16.8822 6.92016C17.0148 6.95325 17.1533 6.95568 17.287 6.92727C17.4207 6.89886 17.5462 6.84037 17.654 6.75622C17.7617 6.67208 17.8489 6.56449 17.9088 6.44163C17.9688 6.31878 18 6.18387 18 6.04717V2.70279C18.0009 2.51371 17.9419 2.32921 17.8312 2.17588C17.7206 2.02254 17.5641 1.90829 17.3844 1.84959Z" fill="currentColor"/>
    </symbol>

    <symbol id="media-discography" width="100%" height="100%" viewBox="0 0 18 16">
        <path d="M2.7 0H16.2C16.6774 0 17.1352 0.187301 17.4728 0.520699C17.8104 0.854097 18 1.30628 18 1.77778V4.44444C18 4.91594 17.8104 5.36812 17.4728 5.70152C17.1352 6.03492 16.6774 6.22222 16.2 6.22222H14.4V8.88889C14.4 9.83188 14.0207 10.7363 13.3456 11.403C12.6705 12.0698 11.7548 12.4444 10.8 12.4444H5.4C4.44522 12.4444 3.52955 12.0698 2.85442 11.403C2.17928 10.7363 1.8 9.83188 1.8 8.88889V0.888889C1.8 0.653141 1.89482 0.427048 2.0636 0.260349C2.23239 0.0936505 2.46131 0 2.7 0ZM14.4 1.77778V4.44444H16.2V1.77778H14.4ZM0 14.2222H16.2V16H0V14.2222Z" fill="currentColor"/>
    </symbol>

    <symbol id="media-score" width="100%" height="100%" viewBox="0 0 18 18">
        <path d="M16.2 0H5.4C4.41 0 3.6 0.81 3.6 1.8V12.6C3.6 13.59 4.41 14.4 5.4 14.4H16.2C17.19 14.4 18 13.59 18 12.6V1.8C18 0.81 17.19 0 16.2 0ZM13.5 4.5H11.7V9.333C11.7 10.476 10.89 11.529 9.756 11.673C9.40168 11.7214 9.04093 11.6848 8.70353 11.5663C8.36614 11.4478 8.06178 11.2507 7.81559 10.9913C7.5694 10.7319 7.38845 10.4177 7.28767 10.0746C7.18689 9.73148 7.16918 9.36931 7.236 9.018C7.416 8.028 8.298 7.263 9.306 7.2C9.873 7.164 10.386 7.344 10.8 7.659V3.6C10.8 3.105 11.205 2.7 11.7 2.7H13.5C13.995 2.7 14.4 3.105 14.4 3.6C14.4 4.095 13.995 4.5 13.5 4.5ZM0.9 3.6C0.405 3.6 0 4.005 0 4.5V16.2C0 17.19 0.81 18 1.8 18H13.5C13.995 18 14.4 17.595 14.4 17.1C14.4 16.605 13.995 16.2 13.5 16.2H2.7C2.205 16.2 1.8 15.795 1.8 15.3V4.5C1.8 4.005 1.395 3.6 0.9 3.6Z" fill="currentColor"/>
    </symbol>

    <symbol id="media-books" width="100%" height="100%" viewBox="0 0 18 13">
        <path d="M7.875 0.918342C6.68565 0.330069 5.34955 0 3.9375 0C2.52545 0 1.18935 0.330069 0 0.918342V12.3372C1.18935 11.7489 2.52545 11.4189 3.9375 11.4189C5.81468 11.4189 7.55763 12.0022 9 13C10.4424 12.0022 12.1853 11.4189 14.0625 11.4189C15.4746 11.4189 16.8107 11.7489 18 12.3372V0.918342C16.8107 0.330069 15.4746 0 14.0625 0C12.6504 0 11.3143 0.330069 10.125 0.918342V9.13508C10.125 9.76573 9.62132 10.277 9 10.277C8.37868 10.277 7.875 9.76573 7.875 9.13508V0.918342Z" fill="currentColor"/>
    </symbol>

    <symbol id="media-audio" width="100%" height="100%" viewBox="0 0 17 19">
        <path fill-rule="evenodd" clip-rule="evenodd" d="M16 12.9505V11H13.2525C13.018 11 12.9008 11 12.802 11.0098C11.854 11.1041 11.1041 11.854 11.0098 12.802C11 12.9008 11 13.018 11 13.2525C11 13.5322 11 13.6721 11.0124 13.7831C11.1332 14.8609 12.0909 15.646 13.1714 15.553C13.2827 15.5435 13.4199 15.516 13.6942 15.4612L13.9903 15.4019C14.3708 15.3258 14.561 15.2878 14.7215 15.2257C15.3765 14.9724 15.8506 14.394 15.9706 13.7021C16 13.5325 16 13.3385 16 12.9505ZM6 14.9505V13H3.25245C3.018 13 2.90078 13 2.80205 13.0098C1.85403 13.1041 1.10411 13.854 1.00982 14.802C1 14.9008 1 15.018 1 15.2525C1 15.5322 1 15.6721 1.01244 15.7831C1.13321 16.8609 2.0909 17.646 3.17139 17.553C3.28267 17.5435 3.41994 17.516 3.69419 17.4612L3.99029 17.4019C4.37076 17.3258 4.56099 17.2878 4.7215 17.2257C5.3765 16.9724 5.85063 16.394 5.9706 15.7021C6 15.5325 6 15.3385 6 14.9505Z" fill="currentColor"/>
        <path d="M6 13V8M6 13V14.9505M6 13H3.25245M16 11V6M16 11V12.9505M16 11H13.2525M16 6L6 8M16 6V5.87922M6 8V6.27922M6 6.27922C6 4.70946 6 3.92459 6.45332 3.37163C6.90663 2.81867 7.67627 2.66475 9.21554 2.35689M6 6.27922V6.27922C6 4.70946 6 3.92459 6.45332 3.37163C6.45332 3.37163 6.45332 3.37163 6.45332 3.37163C6.90663 2.81867 7.67627 2.66475 9.21554 2.35689V2.35689M6 6.27922V14.9505M9.21554 2.35689L11.2155 1.95689M11.2155 1.95689C13.4291 1.51417 14.536 1.29281 15.268 1.89292C16 2.49304 16 3.62176 16 5.87922M11.2155 1.95689V1.95689C13.4291 1.51417 14.536 1.29281 15.268 1.89292C16 2.49304 16 3.62176 16 5.87922V5.87922M16 12.9505C16 13.3385 16 13.5325 15.9706 13.7021C15.8506 14.394 15.3765 14.9724 14.7215 15.2257C14.561 15.2878 14.3708 15.3258 13.9903 15.4019M16 12.9505V12.9505C16 13.3385 16 13.5325 15.9706 13.702C15.8506 14.394 15.3765 14.9724 14.7215 15.2257C14.561 15.2878 14.3708 15.3258 13.9903 15.4019V15.4019M13.9903 15.4019L13.6942 15.4612M13.6942 15.4612C13.4199 15.516 13.2827 15.5435 13.1714 15.553C12.0909 15.646 11.1332 14.8609 11.0124 13.7831C11 13.6721 11 13.5322 11 13.2525M13.6942 15.4612V15.4612C13.4199 15.516 13.2827 15.5435 13.1714 15.553C12.0909 15.646 11.1332 14.8609 11.0124 13.7831C11 13.6721 11 13.5322 11 13.2525V13.2525M11 13.2525C11 13.018 11 12.9008 11.0098 12.802C11.1041 11.854 11.854 11.1041 12.802 11.0098C12.9008 11 13.018 11 13.2525 11M11 13.2525V13.2525C11 13.018 11 12.9008 11.0098 12.8021C11.1041 11.854 11.854 11.1041 12.8021 11.0098C12.9008 11 13.018 11 13.2525 11V11M6 14.9505C6 15.3385 6 15.5325 5.9706 15.7021C5.85063 16.394 5.3765 16.9724 4.7215 17.2257C4.56099 17.2878 4.37076 17.3258 3.99029 17.4019M6 14.9505V14.9505C6 15.3385 6 15.5325 5.9706 15.7021C5.85063 16.394 5.3765 16.9724 4.7215 17.2257C4.56099 17.2878 4.37075 17.3258 3.99029 17.4019V17.4019M3.99029 17.4019L3.69419 17.4612M3.69419 17.4612C3.41994 17.516 3.28267 17.5435 3.17139 17.553C2.0909 17.646 1.13321 16.8609 1.01244 15.7831C1 15.6721 1 15.5322 1 15.2525M3.69419 17.4612V17.4612C3.41986 17.516 3.28269 17.5435 3.17139 17.553C2.0909 17.646 1.13321 16.8608 1.01244 15.7831C1 15.6721 1 15.5322 1 15.2525V15.2525M1 15.2525C1 15.018 1 14.9008 1.00982 14.802C1.10411 13.854 1.85403 13.1041 2.80205 13.0098C2.90078 13 3.018 13 3.25245 13M1 15.2525V15.2525C1 15.018 1 14.9008 1.00982 14.8021C1.10411 13.854 1.85403 13.1041 2.80205 13.0098C2.90078 13 3.01801 13 3.25245 13V13" stroke="currentColor" stroke-width="2" fill="none"/>
    </symbol>

    <symbol id="media-products" width="100%" height="100%" viewBox="0 0 18 16">
        <path d="M5.625 0C5.00368 0 4.5 0.511675 4.5 1.14286C4.5 1.77404 5.00368 2.28571 5.625 2.28571H12.375C12.9963 2.28571 13.5 1.77404 13.5 1.14286C13.5 0.511675 12.9963 0 12.375 0H5.625Z" fill="currentColor"/>
        <path d="M2.25 4.57143C2.25 3.94025 2.75368 3.42857 3.375 3.42857H14.625C15.2463 3.42857 15.75 3.94025 15.75 4.57143C15.75 5.20261 15.2463 5.71429 14.625 5.71429H3.375C2.75368 5.71429 2.25 5.20261 2.25 4.57143Z" fill="currentColor"/>
        <path d="M0 9.14286C0 7.88049 1.00736 6.85714 2.25 6.85714H15.75C16.9926 6.85714 18 7.88049 18 9.14286V13.7143C18 14.9767 16.9926 16 15.75 16H2.25C1.00736 16 0 14.9767 0 13.7143V9.14286Z" fill="currentColor"/>
    </symbol>

    <symbol id="address" width="100%" height="100%" viewBox="0 0 12 15">
        <path d="M5.78608 0.00381776C2.79784 0.108385 0.315355 2.43347 0.0285581 5.40134C-0.0300347 5.99491 0.00388752 6.57003 0.108738 7.12055C0.108738 7.12055 0.117989 7.18513 0.148828 7.30815C0.241343 7.72027 0.380115 8.12009 0.55281 8.4953C1.15416 9.91618 2.54497 12.2936 5.66581 14.8801C5.857 15.04 6.13763 15.04 6.33191 14.8801C9.45275 12.2966 10.8436 9.91926 11.448 8.49222C11.6238 8.11701 11.7595 7.72027 11.852 7.30508C11.8797 7.18513 11.8921 7.11747 11.8921 7.11747C11.963 6.74841 12 6.37012 12 5.98261C12 2.6057 9.1968 -0.116127 5.78608 0.00381776ZM5.99886 8.9597C4.3891 8.9597 3.08464 7.65876 3.08464 6.05334C3.08464 4.44793 4.3891 3.14699 5.99886 3.14699C7.60862 3.14699 8.91308 4.44793 8.91308 6.05334C8.91308 7.65876 7.60862 8.9597 5.99886 8.9597Z" fill="currentColor"/>
    </symbol>

    <symbol id="tel" width="100%" height="100%" viewBox="0 0 15 15">
        <path d="M8 4C7.724 4 7.5 4.224 7.5 4.5C7.5 4.776 7.724 5 8 5C9.103 5 10 5.897 10 7C10 7.276 10.224 7.5 10.5 7.5C10.776 7.5 11 7.276 11 7C11 5.346 9.654 4 8 4Z" fill="currentColor"/>
        <path d="M8 2C7.724 2 7.5 2.224 7.5 2.5C7.5 2.776 7.724 3 8 3C10.206 3 12 4.794 12 7C12 7.276 12.224 7.5 12.5 7.5C12.776 7.5 13 7.276 13 7C13 4.243 10.757 2 8 2Z" fill="currentColor"/>
        <path d="M8 0C7.724 0 7.5 0.224 7.5 0.5C7.5 0.776 7.724 1 8 1C11.309 1 14 3.691 14 7C14 7.276 14.224 7.5 14.5 7.5C14.776 7.5 15 7.276 15 7C15 3.14 11.859 0 8 0Z" fill="currentColor"/>
        <path d="M13.5 11C12.048 11 10.665 10.684 9.39 10.061C9.27 10.001 9.132 9.994 9.007 10.038C8.881 10.082 8.778 10.174 8.72 10.293L7.934 11.92C5.9 10.785 4.216 9.102 3.082 7.068L4.708 6.28C4.828 6.222 4.919 6.119 4.963 5.993C5.006 5.868 4.998 5.73 4.939 5.61C4.316 4.335 4 2.952 4 1.5C4 1.224 3.776 1 3.5 1H0.5C0.224 1 0 1.224 0 1.5C0 8.944 6.056 15 13.5 15C13.776 15 14 14.776 14 14.5V11.5C14 11.224 13.776 11 13.5 11Z" fill="currentColor"/>
    </symbol>

     <symbol id="telephone" width="100%" height="100%" viewBox="0 0 16 16">
        <path d="M0 1C0 0.447715 0.447715 0 1 0H3.15287C3.64171 0 4.0589 0.353413 4.13927 0.835601L4.87858 5.27147C4.95075 5.70451 4.73206 6.13397 4.3394 6.3303L2.79126 7.10437C3.90756 9.87832 6.12168 12.0924 8.89563 13.2087L9.6697 11.6606C9.86603 11.2679 10.2955 11.0492 10.7285 11.1214L15.1644 11.8607C15.6466 11.9411 16 12.3583 16 12.8471V15C16 15.5523 15.5523 16 15 16H13C5.8203 16 0 10.1797 0 3V1Z" fill="currentColor"/>
    </symbol>

    <symbol id="time" width="100%" height="100%" viewBox="0 0 15 15">
        <path fill-rule="evenodd" clip-rule="evenodd" d="M7.5 15C11.6421 15 15 11.6421 15 7.5C15 3.35786 11.6421 0 7.5 0C3.35786 0 0 3.35786 0 7.5C0 11.6421 3.35786 15 7.5 15ZM8.5 3.75C8.5 3.19771 8.05229 2.75 7.5 2.75C6.94772 2.75 6.5 3.19771 6.5 3.75V7.5C6.5 7.76521 6.60536 8.01958 6.79289 8.20711L9.44454 10.8588C9.83507 11.2493 10.4682 11.2493 10.8588 10.8588C11.2493 10.4682 11.2493 9.83507 10.8588 9.44455L8.5 7.08578V3.75Z" fill="currentColor"/>
    </symbol>

    <symbol id="clock" width="100%" height="100%" viewBox="0 0 40 40">
        <path fill-rule="evenodd" clip-rule="evenodd" d="M20 36C28.8366 36 36 28.8366 36 20C36 11.1634 28.8366 4 20 4C11.1634 4 4 11.1634 4 20C4 28.8366 11.1634 36 20 36ZM21 12C21 11.4477 20.5523 11 20 11C19.4477 11 19 11.4477 19 12V20C19 20.2652 19.1054 20.5196 19.2929 20.7071L24.9497 26.364C25.3403 26.7545 25.9734 26.7545 26.364 26.364C26.7545 25.9734 26.7545 25.3403 26.364 24.9497L21 19.5858V12Z" fill="currentColor"/>
    </symbol>

    <symbol id="school" width="100%" height="100%" viewBox="0 0 19 16">
        <path d="M3.16706 8.98328V11.3249C3.16706 11.9333 3.50039 12.4999 4.03372 12.7916L8.20039 15.0666C8.70039 15.3416 9.30039 15.3416 9.80039 15.0666L13.9671 12.7916C14.5004 12.4999 14.8337 11.9333 14.8337 11.3249V8.98328L9.80039 11.7333C9.30039 12.0083 8.70039 12.0083 8.20039 11.7333L3.16706 8.98328ZM8.20039 0.933276L1.17539 4.76661C0.600391 5.08328 0.600391 5.91661 1.17539 6.23328L8.20039 10.0666C8.70039 10.3416 9.30039 10.3416 9.80039 10.0666L16.5004 6.40828V11.3333C16.5004 11.7916 16.8754 12.1666 17.3337 12.1666C17.7921 12.1666 18.1671 11.7916 18.1671 11.3333V5.99161C18.1671 5.68328 18.0004 5.40828 17.7337 5.25828L9.80039 0.933276C9.55418 0.801964 9.27943 0.733276 9.00039 0.733276C8.72135 0.733276 8.4466 0.801964 8.20039 0.933276Z" fill="currentColor"/>
    </symbol>

    <symbol id="photo" width="100%" height="100%" viewBox="0 0 16 14">
        <path fill-rule="evenodd" clip-rule="evenodd" d="M2 2C0.895431 2 0 2.89543 0 4V12C0 13.1046 0.895431 14 2 14H14C15.1046 14 16 13.1046 16 12V4C16 2.89543 15.1046 2 14 2H12.4142C12.149 2 11.8946 1.89464 11.7071 1.70711L10.5858 0.585787C10.2107 0.210714 9.70201 0 9.17157 0H6.82843C6.29799 0 5.78929 0.210713 5.41421 0.585786L4.29289 1.70711C4.10536 1.89464 3.851 2 3.58579 2H2ZM8 11C9.65685 11 11 9.65685 11 8C11 6.34315 9.65685 5 8 5C6.34315 5 5 6.34315 5 8C5 9.65685 6.34315 11 8 11Z" fill="currentColor"/>
    </symbol>

    <symbol id="document" width="100%" height="100%" viewBox="0 0 14 16">
        <path d="M6 0C4.89543 0 4 0.895432 4 2V10C4 11.1046 4.89543 12 6 12H12C13.1046 12 14 11.1046 14 10V4.41421C14 3.88378 13.7893 3.37507 13.4142 3L11 0.585786C10.6249 0.210714 10.1162 0 9.58579 0H6Z" fill="currentColor"/>
        <path d="M0 6C0 4.89543 0.89543 4 2 4V14H10C10 15.1046 9.10457 16 8 16H2C0.89543 16 0 15.1046 0 14V6Z" fill="currentColor"/>
    </symbol>

    <symbol id="info" width="100%" height="100%" viewBox="0 0 12 16">
        <path fill-rule="evenodd" clip-rule="evenodd" d="M6.15 0.5V3.75L6.15 3.78794V3.78795V3.78796V3.78796C6.14996 4.2268 6.14993 4.61462 6.19196 4.92722C6.23752 5.26607 6.34212 5.60486 6.61863 5.88137C6.89514 6.15788 7.23393 6.26248 7.57278 6.30804C7.88538 6.35007 8.27321 6.35004 8.71205 6.35L8.75 6.35H12V11C12 13.1213 12 14.182 11.341 14.841C10.682 15.5 9.62132 15.5 7.5 15.5H4.5C2.37868 15.5 1.31802 15.5 0.65901 14.841C0 14.182 0 13.1213 0 11V5C0 2.87868 0 1.81802 0.65901 1.15901C1.31802 0.5 2.37868 0.5 4.5 0.5H6.15ZM7.35 0.501002V3.75C7.35 4.23837 7.35127 4.54428 7.38126 4.76732C7.40893 4.9731 7.45077 5.01646 7.46716 5.03284C7.48354 5.04923 7.5269 5.09107 7.73268 5.11874C7.95572 5.14873 8.26163 5.15 8.75 5.15H11.999C11.9951 4.75438 11.9765 4.5161 11.8858 4.2973C11.7716 4.02164 11.5549 3.80487 11.1213 3.37132L9.12868 1.37868C8.69513 0.945134 8.47836 0.728361 8.20271 0.614181C7.9839 0.523548 7.74562 0.504856 7.35 0.501002ZM3.15 8.75C3.15 8.41863 3.41863 8.15 3.75 8.15L8.25 8.15C8.58137 8.15 8.85 8.41863 8.85 8.75C8.85 9.08137 8.58137 9.35 8.25 9.35H3.75C3.41863 9.35 3.15 9.08137 3.15 8.75ZM3.75 11.15C3.41863 11.15 3.15 11.4186 3.15 11.75C3.15 12.0814 3.41863 12.35 3.75 12.35H6.75C7.08137 12.35 7.35 12.0814 7.35 11.75C7.35 11.4186 7.08137 11.15 6.75 11.15L3.75 11.15Z" fill="currentColor"/>
    </symbol>

    <symbol id="hall" width="100%" height="100%" viewBox="0 0 14 16">
        <path fill-rule="evenodd" clip-rule="evenodd" d="M1 2C1 0.89543 1.89543 0 3 0H11C12.1046 0 13 0.895431 13 2V14C13.5523 14 14 14.4477 14 15C14 15.5523 13.5523 16 13 16H10C9.44771 16 9 15.5523 9 15V13C9 12.4477 8.55229 12 8 12H6C5.44772 12 5 12.4477 5 13V15C5 15.5523 4.55228 16 4 16H1C0.447715 16 0 15.5523 0 15C0 14.4477 0.447715 14 1 14V2ZM4 3H6V5H4V3ZM6 7H4V9H6V7ZM8 3H10V5H8V3ZM10 7H8V9H10V7Z" fill="currentColor"/>
    </symbol>

    <symbol id="eye" width="100%" height="100%" viewBox="0 0 20 15">
        <path d="M7.33929 7.5C7.33929 8.18338 7.60995 8.83877 8.09172 9.32199C8.57349 9.80522 9.22692 10.0767 9.90825 10.0767C10.5896 10.0767 11.243 9.80522 11.7248 9.32199C12.2065 8.83877 12.4772 8.18338 12.4772 7.5C12.4772 6.81662 12.2065 6.16123 11.7248 5.67801C11.243 5.19478 10.5896 4.92331 9.90825 4.92331C9.22692 4.92331 8.57349 5.19478 8.09172 5.67801C7.60995 6.16123 7.33929 6.81662 7.33929 7.5ZM19.8675 6.90644C17.6931 2.31212 14.4062 0 9.99999 0C5.59148 0 2.30689 2.31212 0.132451 6.90874C0.0452335 7.09398 0 7.29629 0 7.50115C0 7.70601 0.0452335 7.90832 0.132451 8.09356C2.30689 12.6879 5.59378 15 9.99999 15C14.4085 15 17.6931 12.6879 19.8675 8.09126C20.0442 7.71856 20.0442 7.28604 19.8675 6.90644ZM9.90825 11.5491C7.67876 11.5491 5.87132 9.7362 5.87132 7.5C5.87132 5.2638 7.67876 3.45092 9.90825 3.45092C12.1377 3.45092 13.9452 5.2638 13.9452 7.5C13.9452 9.7362 12.1377 11.5491 9.90825 11.5491Z" fill="currentColor"/>
    </symbol>

    <symbol id="arrow" width="100%" height="100%" viewBox="0 0 6 10">
        <path fill-rule="evenodd" clip-rule="evenodd" d="M0.292894 9.70711C-0.0976307 9.31658 -0.0976307 8.68342 0.292894 8.29289L3.58579 5L0.292893 1.70711C-0.0976311 1.31658 -0.0976311 0.683418 0.292893 0.292894C0.683417 -0.0976312 1.31658 -0.0976312 1.70711 0.292894L5.70711 4.29289C6.09763 4.68342 6.09763 5.31658 5.70711 5.70711L1.70711 9.70711C1.31658 10.0976 0.683418 10.0976 0.292894 9.70711Z" fill="currentColor"/>
    </symbol>

    <symbol id="arrows" width="100%" height="100%" viewBox="0 0 14 14">
        <path fill-rule="evenodd" clip-rule="evenodd" d="M0 1C0 0.447715 0.447715 0 1 0H5C5.55228 0 6 0.447715 6 1C6 1.55228 5.55228 2 5 2H3.41421L5.70711 4.29289C6.09763 4.68342 6.09763 5.31658 5.70711 5.70711C5.31658 6.09763 4.68342 6.09763 4.29289 5.70711L2 3.41421V5C2 5.55228 1.55228 6 1 6C0.447715 6 0 5.55228 0 5V1ZM9 2C8.44772 2 8 1.55228 8 1C8 0.447715 8.44772 0 9 0H13C13.5523 0 14 0.447715 14 1V5C14 5.55228 13.5523 6 13 6C12.4477 6 12 5.55228 12 5V3.41421L9.70711 5.70711C9.31658 6.09763 8.68342 6.09763 8.29289 5.70711C7.90237 5.31658 7.90237 4.68342 8.29289 4.29289L10.5858 2H9ZM0 9C0 8.44772 0.447715 8 1 8C1.55228 8 2 8.44772 2 9V10.5858L4.29289 8.29289C4.68342 7.90237 5.31658 7.90237 5.70711 8.29289C6.09763 8.68342 6.09763 9.31658 5.70711 9.70711L3.41421 12H5C5.55228 12 6 12.4477 6 13C6 13.5523 5.55228 14 5 14H1C0.447715 14 0 13.5523 0 13V9ZM13 8C13.5523 8 14 8.44772 14 9V13C14 13.5523 13.5523 14 13 14H9C8.44772 14 8 13.5523 8 13C8 12.4477 8.44772 12 9 12H10.5858L8.29289 9.70711C7.90237 9.31658 7.90237 8.68342 8.29289 8.29289C8.68342 7.90237 9.31658 7.90237 9.70711 8.29289L12 10.5858V9C12 8.44772 12.4477 8 13 8Z" fill="currentColor"/>
    </symbol>

    <symbol id="basket" width="100%" height="100%" viewBox="0 0 14 15">
        <path d="M0.875 0C0.391751 0 0 0.391751 0 0.875C0 1.35825 0.391751 1.75 0.875 1.75H1.94182L2.20919 2.81946C2.21199 2.83183 2.21506 2.84409 2.21838 2.85625L3.40596 7.60656L2.62496 8.38756C1.52252 9.49 2.30331 11.375 3.86239 11.375H11.375C11.8582 11.375 12.25 10.9832 12.25 10.5C12.25 10.0168 11.8582 9.625 11.375 9.625L3.86239 9.625L4.73739 8.75H10.5C10.8314 8.75 11.1344 8.56275 11.2826 8.26631L13.9076 3.01631C14.0432 2.74507 14.0287 2.42295 13.8693 2.16498C13.7099 1.90702 13.4283 1.75 13.125 1.75H3.74568L3.47387 0.662781C3.37649 0.27326 3.02651 0 2.625 0H0.875Z" fill="currentColor"/>
        <path d="M12.25 13.5625C12.25 14.2874 11.6624 14.875 10.9375 14.875C10.2126 14.875 9.625 14.2874 9.625 13.5625C9.625 12.8376 10.2126 12.25 10.9375 12.25C11.6624 12.25 12.25 12.8376 12.25 13.5625Z" fill="currentColor"/>
        <path d="M3.9375 14.875C4.66237 14.875 5.25 14.2874 5.25 13.5625C5.25 12.8376 4.66237 12.25 3.9375 12.25C3.21263 12.25 2.625 12.8376 2.625 13.5625C2.625 14.2874 3.21263 14.875 3.9375 14.875Z" fill="currentColor"/>
    </symbol>

    <symbol id="geo" width="100%" height="100%" viewBox="0 0 14 17">
        <path fill-rule="evenodd" clip-rule="evenodd" d="M2.05025 2.05025C4.78392 -0.683418 9.2161 -0.683418 11.9497 2.05025C14.6834 4.78392 14.6834 9.2161 11.9497 11.9497L7 16.8995L2.05025 11.9497C-0.683418 9.2161 -0.683418 4.78392 2.05025 2.05025ZM7 9C8.1046 9 9 8.1046 9 7C9 5.89543 8.1046 5 7 5C5.89543 5 5 5.89543 5 7C5 8.1046 5.89543 9 7 9Z" fill="currentColor"/>
    </symbol>

    <symbol id="geolocation" width="100%" height="100%" viewBox="0 0 30 34">
        <path fill-rule="evenodd" clip-rule="evenodd" d="M0 15.3334C0 7.0491 6.71573 0.333374 15 0.333374C23.2843 0.333374 30 7.0491 30 15.3334C30 20.3774 26.9837 24.653 23.5082 27.6651L17.7725 32.636C16.1814 34.015 13.8186 34.015 12.2275 32.636L6.49176 27.6651C3.01628 24.653 0 20.3774 0 15.3334ZM15 18.6667C16.8409 18.6667 18.3333 17.1743 18.3333 15.3334C18.3333 13.4924 16.8409 12 15 12C13.1591 12 11.6667 13.4924 11.6667 15.3334C11.6667 17.1743 13.1591 18.6667 15 18.6667Z" fill="currentColor"/>
    </symbol>

    <symbol id="date" width="100%" height="100%" viewBox="0 0 16 16">
        <path fill-rule="evenodd" clip-rule="evenodd" d="M4 0C3.44772 0 3 0.44772 3 1V2H2C0.89543 2 0 2.89543 0 4V14C0 15.1046 0.89543 16 2 16H14C15.1046 16 16 15.1046 16 14V4C16 2.89543 15.1046 2 14 2H13V1C13 0.44772 12.5523 0 12 0C11.4477 0 11 0.44772 11 1V2H5V1C5 0.44772 4.55228 0 4 0ZM4 5C3.44772 5 3 5.44772 3 6C3 6.55228 3.44772 7 4 7H12C12.5523 7 13 6.55228 13 6C13 5.44772 12.5523 5 12 5H4Z" fill="currentColor"/>
    </symbol>

    <symbol id="marks" width="100%" height="100%" viewBox="0 0 16 16">
        <path d="M5 0.519998L6.872 1.864C6.52 2.312 6.12 2.952 5.672 3.784C5.256 4.616 4.888 5.544 4.568 6.568C4.248 7.56 4.104 8.52 4.136 9.448C4.36 9.384 4.536 9.352 4.664 9.352C4.824 9.32 4.984 9.304 5.144 9.304C6.008 9.304 6.776 9.56 7.448 10.072C8.12 10.584 8.456 11.384 8.456 12.472C8.456 13.432 8.136 14.28 7.496 15.016C6.888 15.72 6.056 16.072 5 16.072C3.528 16.104 2.424 15.64 1.688 14.68C0.952 13.688 0.584 12.472 0.584 11.032C0.584 9.496 0.936 7.832 1.64 6.04C2.376 4.216 3.496 2.376 5 0.519998ZM14.6 0.519998L16.472 1.864C16.12 2.312 15.72 2.952 15.272 3.784C14.856 4.616 14.488 5.544 14.168 6.568C13.848 7.56 13.704 8.52 13.736 9.448C13.96 9.384 14.136 9.352 14.264 9.352C14.424 9.32 14.584 9.304 14.744 9.304C15.608 9.304 16.376 9.56 17.048 10.072C17.72 10.584 18.056 11.384 18.056 12.472C18.056 13.432 17.736 14.28 17.096 15.016C16.488 15.72 15.656 16.072 14.6 16.072C13.128 16.104 12.024 15.64 11.288 14.68C10.552 13.688 10.184 12.472 10.184 11.032C10.184 9.496 10.536 7.832 11.24 6.04C11.976 4.216 13.096 2.376 14.6 0.519998Z" fill="currentColor"/>
    </symbol>

    <symbol id="player" width="100%" height="100%" viewBox="0 0 60 60">
        <circle cx="30" cy="30" r="20" fill="white"/>
        <path fill-rule="evenodd" clip-rule="evenodd" d="M30 60C46.5685 60 60 46.5685 60 30C60 13.4315 46.5685 0 30 0C13.4315 0 0 13.4315 0 30C0 46.5685 13.4315 60 30 60ZM28.3301 19.3798C27.1794 18.6127 25.6999 18.5412 24.4805 19.1937C23.2612 19.8463 22.5 21.117 22.5 22.5V37.5C22.5 38.883 23.2612 40.1537 24.4805 40.8063C25.6999 41.4589 27.1794 41.3873 28.3301 40.6202L39.5801 33.1202C40.6234 32.4247 41.25 31.2538 41.25 30C41.25 28.7462 40.6234 27.5753 39.5801 26.8798L28.3301 19.3798Z" fill="currentColor"/>
    </symbol>

    <symbol id="player-play" width="100%" height="100%" viewBox="0 0 24 24">
        <path fill-rule="evenodd" clip-rule="evenodd" d="M12 24C18.6274 24 24 18.6274 24 12C24 5.37258 18.6274 0 12 0C5.37258 0 0 5.37258 0 12C0 18.6274 5.37258 24 12 24ZM11.3321 7.75193C10.8718 7.44507 10.2799 7.41646 9.79221 7.67749C9.30448 7.93852 9 8.44681 9 9V15C9 15.5532 9.30448 16.0615 9.79221 16.3225C10.2799 16.5835 10.8718 16.5549 11.3321 16.2481L15.8321 13.2481C16.2493 12.9699 16.5 12.5015 16.5 12C16.5 11.4985 16.2493 11.0301 15.8321 10.7519L11.3321 7.75193Z" fill="currentColor"/>
    </symbol>

    <symbol id="player-loading" width="100%" height="100%" viewBox="0 0 24 24">
        <path d="M12.5621 5.61427C14.1125 5.61427 15.3694 4.35747 15.3694 2.80713C15.3694 1.2568 14.1125 0 12.5621 0C11.0117 0 9.75488 1.2568 9.75488 2.80713C9.75488 4.35747 11.0117 5.61427 12.5621 5.61427Z" fill="currentColor"/>
        <path d="M12.5621 24C13.4922 24 14.2463 23.246 14.2463 22.3159C14.2463 21.3858 13.4922 20.6318 12.5621 20.6318C11.632 20.6318 10.8779 21.3858 10.8779 22.3159C10.8779 23.246 11.632 24 12.5621 24Z" fill="currentColor"/>
        <path d="M5.66439 8.19005C7.05985 8.19005 8.19109 7.05885 8.19109 5.66344C8.19109 4.26804 7.05985 3.13684 5.66439 3.13684C4.26894 3.13684 3.1377 4.26804 3.1377 5.66344C3.1377 7.05885 4.26894 8.19005 5.66439 8.19005Z" fill="currentColor"/>
        <path d="M19.4603 20.8613C20.2355 20.8613 20.8639 20.2329 20.8639 19.4578C20.8639 18.6826 20.2355 18.0542 19.4603 18.0542C18.6851 18.0542 18.0566 18.6826 18.0566 19.4578C18.0566 20.2329 18.6851 20.8613 19.4603 20.8613Z" fill="currentColor"/>
        <path d="M2.80677 14.8072C4.04679 14.8072 5.05202 13.802 5.05202 12.562C5.05202 11.322 4.04679 10.3168 2.80677 10.3168C1.56675 10.3168 0.561523 11.322 0.561523 12.562C0.561523 13.802 1.56675 14.8072 2.80677 14.8072Z" fill="currentColor"/>
        <path d="M22.3165 13.6832C22.9363 13.6832 23.4387 13.1808 23.4387 12.5611C23.4387 11.9414 22.9363 11.439 22.3165 11.439C21.6967 11.439 21.1943 11.9414 21.1943 12.5611C21.1943 13.1808 21.6967 13.6832 22.3165 13.6832Z" fill="currentColor"/>
        <path d="M4.2751 18.0706C3.50726 18.8384 3.50726 20.0808 4.2751 20.8486C5.04204 21.6164 6.28626 21.6164 7.0532 20.8486C7.82105 20.0808 7.82105 18.8384 7.0532 18.0706C6.28626 17.3019 5.04295 17.2946 4.2751 18.0706Z" fill="currentColor"/>
        <path d="M19.4588 6.50503C19.9236 6.50503 20.3004 6.12823 20.3004 5.66343C20.3004 5.19863 19.9236 4.82184 19.4588 4.82184C18.994 4.82184 18.6172 5.19863 18.6172 5.66343C18.6172 6.12823 18.994 6.50503 19.4588 6.50503Z" fill="currentColor"/>
    </symbol>

    <symbol id="player-pause" width="100%" height="100%" viewBox="0 0 24 24">
        <path fill-rule="evenodd" clip-rule="evenodd" d="M24 12C24 18.6274 18.6274 24 12 24C5.37258 24 0 18.6274 0 12C0 5.37258 5.37258 0 12 0C18.6274 0 24 5.37258 24 12ZM7.5 9C7.5 8.17157 8.17157 7.5 9 7.5C9.82843 7.5 10.5 8.17157 10.5 9V15C10.5 15.8284 9.82843 16.5 9 16.5C8.17157 16.5 7.5 15.8284 7.5 15V9ZM15 7.5C14.1716 7.5 13.5 8.17157 13.5 9V15C13.5 15.8284 14.1716 16.5 15 16.5C15.8284 16.5 16.5 15.8284 16.5 15V9C16.5 8.17157 15.8284 7.5 15 7.5Z" fill="currentColor"/>
    </symbol>

    <symbol id="player-prev" width="100%" height="100%" viewBox="0 0 15 10">
        <path d="M13.4453 0.167951C13.7522 -0.0366195 14.1467 -0.0556921 14.4719 0.118327C14.797 0.292346 15 0.631206 15 1V9C15 9.3688 14.797 9.70766 14.4719 9.88168C14.1467 10.0557 13.7522 10.0366 13.4453 9.83205L8 6.20185V9C8 9.3688 7.79702 9.70766 7.47186 9.88168C7.1467 10.0557 6.75216 10.0366 6.4453 9.83205L0.445299 5.83205C0.167101 5.64659 0 5.33435 0 5C0 4.66565 0.167101 4.35342 0.445299 4.16795L6.4453 0.167951C6.75216 -0.0366195 7.1467 -0.0556921 7.47186 0.118327C7.79702 0.292346 8 0.631206 8 1V3.79815L13.4453 0.167951Z" fill="currentColor"/>
    </symbol>

    <symbol id="player-next" width="100%" height="100%" viewBox="0 0 15 10">
        <path d="M1.5547 0.167951C1.24784 -0.0366195 0.8533 -0.0556921 0.528142 0.118327C0.202985 0.292346 0 0.631206 0 1V9C0 9.3688 0.202985 9.70766 0.528142 9.88168C0.8533 10.0557 1.24784 10.0366 1.5547 9.83205L7 6.20185V9C7 9.3688 7.20298 9.70766 7.52814 9.88168C7.8533 10.0557 8.24784 10.0366 8.5547 9.83205L14.5547 5.83205C14.8329 5.64659 15 5.33435 15 5C15 4.66565 14.8329 4.35342 14.5547 4.16795L8.5547 0.167951C8.24784 -0.0366195 7.8533 -0.0556921 7.52814 0.118327C7.20298 0.292346 7 0.631206 7 1V3.79815L1.5547 0.167951Z" fill="currentColor"/>
    </symbol>

    <symbol id="player-volume" width="100%" height="100%" viewBox="0 0 18 15">
        <path fill-rule="evenodd" clip-rule="evenodd" d="M8.38268 0.440163C8.75636 0.594944 9 0.959581 9 1.36404V13.364C9 13.7685 8.75636 14.1331 8.38268 14.2879C8.00901 14.4427 7.57889 14.3571 7.29289 14.0711L3.58579 10.364H1C0.447715 10.364 0 9.91633 0 9.36404V5.36404C0 4.81176 0.447715 4.36404 1 4.36404H3.58579L7.29289 0.656936C7.57889 0.370938 8.00901 0.285382 8.38268 0.440163Z" fill="currentColor"/>
        <path fill-rule="evenodd" clip-rule="evenodd" d="M13.6568 0.292893C14.0474 -0.0976311 14.6805 -0.0976311 15.0711 0.292893C16.8796 2.10144 18 4.60281 18 7.36396C18 10.1251 16.8796 12.6265 15.0711 14.435C14.6805 14.8256 14.0474 14.8256 13.6568 14.435C13.2663 14.0445 13.2663 13.4113 13.6568 13.0208C15.1057 11.572 16 9.57338 16 7.36396C16 5.15455 15.1057 3.15592 13.6568 1.70711C13.2663 1.31658 13.2663 0.683417 13.6568 0.292893ZM10.8284 3.12132C11.2189 2.7308 11.8521 2.7308 12.2426 3.12132C12.7685 3.6472 13.1976 4.27088 13.5003 4.96359C13.822 5.69993 14 6.51248 14 7.36396C14 9.02054 13.3273 10.5219 12.2426 11.6066C11.8521 11.9971 11.2189 11.9971 10.8284 11.6066C10.4379 11.2161 10.4379 10.5829 10.8284 10.1924C11.5534 9.46744 12 8.46881 12 7.36396C12 6.79323 11.8811 6.25291 11.6676 5.76433C11.4663 5.3036 11.1802 4.88728 10.8284 4.53553C10.4379 4.14501 10.4379 3.51184 10.8284 3.12132Z" fill="currentColor"/>
    </symbol>

    <symbol id="box" width="100%" height="100%" viewBox="0 0 32 24">
        <path d="M0 4C0 1.79086 1.79086 0 4 0H28C30.2091 0 32 1.79086 32 4V8C29.7909 8 28 9.79086 28 12C28 14.2091 29.7909 16 32 16V20C32 22.2091 30.2091 24 28 24H4C1.79086 24 0 22.2091 0 20V16C2.20914 16 4 14.2091 4 12C4 9.79086 2.20914 8 0 8V4Z" fill="currentColor"/>
    </symbol>

    <symbol id="mail" width="100%" height="100%" viewBox="0 0 16 13">
        <path fill-rule="evenodd" clip-rule="evenodd" d="M0.261584 1.3309C0 1.85231 0 2.53487 0 3.9V9.1C0 10.4651 0 11.1477 0.261584 11.6691C0.49168 12.1277 0.858834 12.5006 1.31042 12.7343C1.82381 13 2.49587 13 3.84 13H12.16C13.5041 13 14.1762 13 14.6896 12.7343C15.1412 12.5006 15.5083 12.1277 15.7384 11.6691C16 11.1477 16 10.4651 16 9.1V3.9C16 2.53487 16 1.85231 15.7384 1.3309C15.5083 0.872253 15.1412 0.499363 14.6896 0.265672C14.1762 0 13.5041 0 12.16 0H3.84C2.49587 0 1.82381 0 1.31042 0.265672C0.858834 0.499363 0.49168 0.872253 0.261584 1.3309ZM4.45255 3.3925C4.08821 3.13865 3.59024 3.23285 3.34031 3.60288C3.09037 3.97291 3.18311 4.47866 3.54745 4.7325L6.64235 6.88878C7.46045 7.45876 8.53955 7.45877 9.35765 6.88878L12.4526 4.7325C12.8169 4.47866 12.9096 3.97291 12.6597 3.60288C12.4098 3.23285 11.9118 3.13865 11.5475 3.3925L8.45255 5.54877C8.17985 5.73877 7.82015 5.73877 7.54745 5.54877L4.45255 3.3925Z" fill="currentColor"/>
    </symbol>

    <symbol id="audio" width="100%" height="100%" viewBox="0 0 18 22">
        <path d="M5.39961 3.80001C5.39961 1.81179 7.01138 0.200012 8.99961 0.200012C10.9878 0.200012 12.5996 1.81179 12.5996 3.80001V8.60001C12.5996 10.5882 10.9878 12.2 8.99961 12.2C7.01138 12.2 5.39961 10.5882 5.39961 8.60001V3.80001Z" fill="currentColor"/>
        <path d="M10.1996 16.9149C14.2704 16.3327 17.3996 12.8318 17.3996 8.60001C17.3996 7.93727 16.8624 7.40001 16.1996 7.40001C15.5369 7.40001 14.9996 7.93727 14.9996 8.60001C14.9996 11.9137 12.3133 14.6 8.99961 14.6C5.6859 14.6 2.99961 11.9137 2.99961 8.60001C2.99961 7.93727 2.46235 7.40001 1.79961 7.40001C1.13687 7.40001 0.599609 7.93727 0.599609 8.60001C0.599609 12.8318 3.72886 16.3327 7.79961 16.9149V19.4H4.19961C3.53687 19.4 2.99961 19.9373 2.99961 20.6C2.99961 21.2628 3.53687 21.8 4.19961 21.8H13.7996C14.4624 21.8 14.9996 21.2628 14.9996 20.6C14.9996 19.9373 14.4624 19.4 13.7996 19.4H10.1996V16.9149Z" fill="currentColor"/>
    </symbol>

    <symbol id="music" width="100%" height="100%" viewBox="0 0 16 20">
        <path fill-rule="evenodd" clip-rule="evenodd" d="M9.00032 14.7531V12H4.81795C3.2012 12 1.83049 13.1888 1.60184 14.7893C1.2989 16.9099 3.09531 18.7381 5.22091 18.4724L5.77853 18.4027C7.6191 18.1727 9.00032 16.608 9.00032 14.7531Z" fill="currentColor"/>
        <path d="M9.00032 6V5.38851C9.00032 3.77017 9.00032 2.961 9.47428 2.40151C9.94824 1.84202 10.7464 1.70899 12.3427 1.44294L14.6994 1.05015C14.8352 1.02752 14.9031 1.0162 14.9398 1.05589C14.9764 1.09557 14.9597 1.16237 14.9263 1.29594L14.031 4.87722C14.0161 4.93689 14.0086 4.96673 13.9877 4.98673C13.9667 5.00673 13.9365 5.01276 13.8762 5.02483L9.00032 6ZM9.00032 6V12M9.00032 12V14.7531C9.00032 16.608 7.6191 18.1727 5.77853 18.4027L5.22091 18.4724C3.09531 18.7381 1.2989 16.9099 1.60184 14.7893C1.83049 13.1888 3.2012 12 4.81795 12H9.00032Z" stroke="currentColor" stroke-width="2" fill="none"/>
    </symbol>

    <symbol id="dance" width="100%" height="100%" viewBox="0 0 20 22">
        <path d="M12.1667 1.79169C12.1667 2.69085 11.4408 3.41669 10.5417 3.41669C9.6425 3.41669 8.91667 2.69085 8.91667 1.79169C8.91667 0.89252 9.6425 0.166687 10.5417 0.166687C11.4408 0.166687 12.1667 0.89252 12.1667 1.79169ZM6.20833 3.41669C5.30917 3.41669 4.58333 4.14252 4.58333 5.04169C4.58333 5.94085 5.30917 6.66669 6.20833 6.66669C7.1075 6.66669 7.83333 5.94085 7.83333 5.04169C7.83333 4.14252 7.1075 3.41669 6.20833 3.41669ZM12.1667 11L11.3217 8.56252H14.5283L16.8683 7.39252C17.2692 7.20835 17.4317 6.71002 17.2258 6.30919C17.18 6.21288 17.1153 6.12673 17.0357 6.05583C16.956 5.98492 16.8629 5.9307 16.7619 5.89637C16.6609 5.86203 16.5541 5.84828 16.4477 5.85592C16.3413 5.86356 16.2375 5.89244 16.1425 5.94085L15.2542 6.38502L14.7233 5.47502C14.4092 4.77085 13.64 4.37002 12.8817 4.54335L10.2058 5.11752C9.45833 5.28002 8.91667 5.96252 8.91667 6.74252V7.50085L6.28417 9.25585H6.295C6.20833 9.33169 6.08917 9.42919 6.02417 9.55919L5.06 11.4767L3.13167 12.4409C2.73083 12.625 2.56833 13.1342 2.77417 13.535C2.87221 13.7272 3.04238 13.8727 3.24744 13.9397C3.4525 14.0067 3.67575 13.9897 3.86833 13.8925L6.27333 12.69L7.4 10.4584L8.91667 12.0834C7.83333 15.3334 0.25 19.6667 0.25 19.6667C0.25 19.6667 4.58333 21.8334 10 21.8334C15.4167 21.8334 19.75 19.6667 19.75 19.6667C19.75 19.6667 14.3333 15.3334 12.1667 11ZM15.2542 10.0142L14.9075 10.1875H13.6075L13.6725 10.3609C14.2358 11.4767 15.0592 12.625 15.9583 13.6434L15.3842 9.94919L15.2542 10.0142Z" fill="currentColor"/>
    </symbol>

    <symbol id="file" width="100%" height="100%" viewBox="0 0 24 24">
        <path d="M4.32698 3.63803C4 4.27976 4 5.11984 4 6.8V17.2C4 18.8802 4 19.7202 4.32698 20.362C4.6146 20.9265 5.07354 21.3854 5.63803 21.673C6.27976 22 7.11984 22 8.8 22H15.2C16.8802 22 17.7202 22 18.362 21.673C18.9265 21.3854 19.3854 20.9265 19.673 20.362C20 19.7202 20 18.8802 20 17.2V9.8C20 9.51997 20 9.37996 19.9455 9.273C19.8976 9.17892 19.8211 9.10243 19.727 9.0545C19.62 9 19.48 9 19.2 9H17C14.7909 9 13 7.20914 13 5V2.8C13 2.51997 13 2.37996 12.9455 2.273C12.8976 2.17892 12.8211 2.10243 12.727 2.0545C12.62 2 12.48 2 12.2 2H8.8C7.11984 2 6.27976 2 5.63803 2.32698C5.07354 2.6146 4.6146 3.07354 4.32698 3.63803Z" fill="currentColor"/>
        <path d="M15 2.70711C15 2.31658 15.3166 2 15.7071 2C15.8946 2 16.0745 2.0745 16.2071 2.20711L19.7929 5.79289C19.9255 5.9255 20 6.10536 20 6.29289C20 6.68342 19.6834 7 19.2929 7H17C15.8954 7 15 6.10457 15 5V2.70711Z" fill="currentColor"/>
    </symbol>

    <symbol id="newspaper" width="100%" height="100%" viewBox="0 0 20 18">
        <path fill-rule="evenodd" clip-rule="evenodd" d="M0.400391 2.99998C0.400391 1.67449 1.47491 0.599976 2.80039 0.599976H12.4004C13.7259 0.599976 14.8004 1.67449 14.8004 2.99998V15C14.8004 16.3255 15.8749 17.4 17.2004 17.4H2.80039C1.47491 17.4 0.400391 16.3255 0.400391 15V2.99998ZM4.00039 4.19998H11.2004V8.99998H4.00039V4.19998ZM11.2004 11.4H4.00039V13.8H11.2004V11.4Z" fill="currentColor"/>
        <path d="M16.0004 5.39998H17.2004C18.5259 5.39998 19.6004 6.47449 19.6004 7.79998V14.4C19.6004 15.3941 18.7945 16.2 17.8004 16.2C16.8063 16.2 16.0004 15.3941 16.0004 14.4V5.39998Z" fill="currentColor"/>
    </symbol>

    <symbol id="delete" width="100%" height="100%" viewBox="0 0 22 22">
        <circle cx="11" cy="11" r="10.5" fill="rgba(0, 0, 0, 0)" stroke="currentColor"/>
        <path d="M7.47465 6.48158L10.9993 10.0062L14.5094 6.49608C14.5709 6.43061 14.645 6.37823 14.7273 6.34209C14.8095 6.30595 14.8982 6.28679 14.988 6.28577C15.1804 6.28577 15.3649 6.36217 15.5009 6.49818C15.6369 6.63419 15.7133 6.81865 15.7133 7.011C15.715 7.09991 15.6985 7.18823 15.6648 7.27054C15.6311 7.35285 15.581 7.42741 15.5175 7.48965L11.9711 10.9998L15.5175 14.5461C15.637 14.6631 15.7071 14.8214 15.7133 14.9885C15.7133 15.1809 15.6369 15.3653 15.5009 15.5013C15.3649 15.6374 15.1804 15.7138 14.988 15.7138C14.8956 15.7176 14.8034 15.7022 14.7173 15.6685C14.6311 15.6348 14.5529 15.5835 14.4876 15.518L10.9993 11.9933L7.4819 15.5107C7.42063 15.574 7.34742 15.6245 7.26651 15.6594C7.1856 15.6942 7.09859 15.7127 7.0105 15.7138C6.81816 15.7138 6.6337 15.6374 6.49769 15.5013C6.36168 15.3653 6.28527 15.1809 6.28527 14.9885C6.28358 14.8996 6.30008 14.8113 6.33375 14.729C6.36742 14.6467 6.41756 14.5721 6.48109 14.5099L10.0275 10.9998L6.48109 7.45339C6.36156 7.33645 6.29147 7.1781 6.28527 7.011C6.28527 6.81865 6.36168 6.63419 6.49769 6.49818C6.6337 6.36217 6.81816 6.28577 7.0105 6.28577C7.18456 6.28794 7.35136 6.35829 7.47465 6.48158Z" fill="currentColor"/>
    </symbol>

    <symbol id="arrow-page" width="100%" height="100%" viewBox="0 0 16 10">
        <path fill-rule="evenodd" clip-rule="evenodd" d="M5.70711 9.70711C5.31658 10.0976 4.68342 10.0976 4.29289 9.70711L0.292894 5.70711C-0.0976312 5.31658 -0.0976312 4.68342 0.292894 4.29289L4.29289 0.292894C4.68342 -0.0976312 5.31658 -0.0976312 5.70711 0.292894C6.09763 0.683417 6.09763 1.31658 5.70711 1.70711L3.41421 4L15 4C15.5523 4 16 4.44771 16 5C16 5.55228 15.5523 6 15 6L3.41421 6L5.70711 8.29289C6.09763 8.68342 6.09763 9.31658 5.70711 9.70711Z" fill="currentColor"/>
    </symbol>

    <symbol id="extradition" width="100%" height="100%" viewBox="0 0 24 24">
        <path d="M23.676 7.882L12.426 0.132C12.17 -0.044 11.832 -0.044 11.575 0.132L0.325 7.882C0.121 8.022 0 8.253 0 8.5V23C0 23.552 0.448 24 1 24H3V12C3 11.448 3.448 11 4 11H20C20.552 11 21 11.448 21 12V24H23C23.552 24 24 23.552 24 23V8.5C24 8.253 23.879 8.022 23.676 7.882Z" fill="currentColor"/>
        <path d="M9.25 19V19.75C9.25 20.164 8.914 20.5 8.5 20.5C8.086 20.5 7.75 20.164 7.75 19.75V19H6C5.724 19 5.5 19.224 5.5 19.5V23.5C5.5 23.776 5.724 24 6 24H11C11.276 24 11.5 23.776 11.5 23.5V19.5C11.5 19.224 11.276 19 11 19H9.25Z" fill="currentColor"/>
        <path d="M16.25 19V19.75C16.25 20.164 15.914 20.5 15.5 20.5C15.086 20.5 14.75 20.164 14.75 19.75V19H13C12.724 19 12.5 19.224 12.5 19.5V23.5C12.5 23.776 12.724 24 13 24H18C18.276 24 18.5 23.776 18.5 23.5V19.5C18.5 19.224 18.276 19 18 19H16.25Z" fill="currentColor"/>
        <path d="M12.75 13V13.75C12.75 14.164 12.414 14.5 12 14.5C11.586 14.5 11.25 14.164 11.25 13.75V13H9.5C9.224 13 9 13.224 9 13.5V17.5C9 17.776 9.224 18 9.5 18H14.5C14.776 18 15 17.776 15 17.5V13.5C15 13.224 14.776 13 14.5 13H12.75Z" fill="currentColor"/>
    </symbol>

    <symbol id="cash" width="100%" height="100%" viewBox="0 0 24 18">
        <path d="M3 0C1.34315 0 0 1.34315 0 3V9C0 10.6569 1.34315 12 3 12L3 3H18C18 1.34315 16.6569 0 15 0H3Z" fill="currentColor"/>
        <path fill-rule="evenodd" clip-rule="evenodd" d="M6 9C6 7.34315 7.34315 6 9 6H21C22.6569 6 24 7.34315 24 9V15C24 16.6569 22.6569 18 21 18H9C7.34315 18 6 16.6569 6 15V9ZM15 15C16.6569 15 18 13.6569 18 12C18 10.3431 16.6569 9 15 9C13.3431 9 12 10.3431 12 12C12 13.6569 13.3431 15 15 15Z" fill="currentColor"/>
    </symbol>

    <symbol id="card" width="100%" height="100%" viewBox="0 0 24 18">
        <path d="M3 0C1.34315 0 0 1.34315 0 3V4.5H24V3C24 1.34315 22.6569 0 21 0H3Z" fill="currentColor"/>
        <path fill-rule="evenodd" clip-rule="evenodd" d="M24 7.5H0V15C0 16.6569 1.34315 18 3 18H21C22.6569 18 24 16.6569 24 15V7.5ZM3 13.5C3 12.6716 3.67157 12 4.5 12H6C6.82843 12 7.5 12.6716 7.5 13.5C7.5 14.3284 6.82843 15 6 15H4.5C3.67157 15 3 14.3284 3 13.5ZM10.5 12C9.67157 12 9 12.6716 9 13.5C9 14.3284 9.67157 15 10.5 15H12C12.8284 15 13.5 14.3284 13.5 13.5C13.5 12.6716 12.8284 12 12 12H10.5Z" fill="currentColor"/>
    </symbol>

    <symbol id="search" width="100%" height="100%" viewBox="0 0 16 16">
        <path d="M11.742 10.344a6.5 6.5 0 1 0-1.397 1.398h-.001c.03.04.062.078.098.115l3.85 3.85a1 1 0 0 0 1.415-1.414l-3.85-3.85a1.007 1.007 0 0 0-.115-.1zM12 6.5a5.5 5.5 0 1 1-11 0 5.5 5.5 0 0 1 11 0z" fill="currentColor"/>
    </symbol>

    <symbol id="checkbox" width="100%" height="100%" viewBox="0 0 30 30">
        <path d="M 26.980469 5.9902344 A 1.0001 1.0001 0 0 0 26.292969 6.2929688 L 11 21.585938 L 4.7070312 15.292969 A 1.0001 1.0001 0 1 0 3.2929688 16.707031 L 10.292969 23.707031 A 1.0001 1.0001 0 0 0 11.707031 23.707031 L 27.707031 7.7070312 A 1.0001 1.0001 0 0 0 26.980469 5.9902344 z" fill="currentColor"/>
    </symbol>

    <symbol id="success" width="100%" height="100%" viewBox="0 0 82 82">
        <path fill-rule="evenodd" clip-rule="evenodd" d="M41 82C63.6437 82 82 63.6437 82 41C82 18.3563 63.6437 0 41 0C18.3563 0 0 18.3563 0 41C0 63.6437 18.3563 82 41 82ZM59.9989 34.3739C62.0004 32.3725 62.0004 29.1275 59.9989 27.1261C57.9975 25.1246 54.7525 25.1246 52.7511 27.1261L35.875 44.0022L29.2489 37.3761C27.2475 35.3746 24.0025 35.3746 22.0011 37.3761C19.9996 39.3775 19.9996 42.6225 22.0011 44.6239L32.2511 54.8739C34.2525 56.8754 37.4975 56.8754 39.4989 54.8739L59.9989 34.3739Z" fill="currentColor"/>
    </symbol>

    <symbol id="error" width="100%" height="100%" viewBox="0 0 82 82">
        <path fill-rule="evenodd" clip-rule="evenodd" d="M41 82C63.6437 82 82 63.6437 82 41C82 18.3563 63.6437 0 41 0C18.3563 0 0 18.3563 0 41C0 63.6437 18.3563 82 41 82ZM34.3739 27.1261C32.3725 25.1246 29.1275 25.1246 27.1261 27.1261C25.1246 29.1275 25.1246 32.3725 27.1261 34.3739L33.7522 41L27.1261 47.6261C25.1246 49.6275 25.1246 52.8725 27.1261 54.8739C29.1275 56.8754 32.3725 56.8754 34.3739 54.8739L41 48.2478L47.6261 54.8739C49.6275 56.8754 52.8725 56.8754 54.8739 54.8739C56.8754 52.8725 56.8754 49.6275 54.8739 47.6261L48.2478 41L54.8739 34.3739C56.8754 32.3725 56.8754 29.1275 54.8739 27.1261C52.8725 25.1246 49.6275 25.1246 47.6261 27.1261L41 33.7522L34.3739 27.1261Z" fill="currentColor"/>
    </symbol>

    <symbol id="sub" width="100%" height="100%" viewBox="0 0 36 36">
        <path fill-rule="evenodd" clip-rule="evenodd" d="M18 36C27.9411 36 36 27.9411 36 18C36 8.05888 27.9411 0 18 0C8.05888 0 0 8.05888 0 18C0 27.9411 8.05888 36 18 36ZM26.341 15.091C27.2197 14.2123 27.2197 12.7877 26.341 11.909C25.4623 11.0303 24.0377 11.0303 23.159 11.909L15.75 19.318L12.841 16.409C11.9623 15.5303 10.5377 15.5303 9.65901 16.409C8.78033 17.2877 8.78033 18.7123 9.65901 19.591L14.159 24.091C15.0377 24.9697 16.4623 24.9697 17.341 24.091L26.341 15.091Z" fill="currentColor"/>
    </symbol>

    <symbol id="i" width="100%" height="100%" viewBox="0 0 16 16">
        <path fill-rule="evenodd" clip-rule="evenodd" d="M16 8C16 12.4183 12.4183 16 8 16C3.58172 16 0 12.4183 0 8C0 3.58172 3.58172 0 8 0C12.4183 0 16 3.58172 16 8ZM9 4C9 4.55228 8.55228 5 8 5C7.44772 5 7 4.55228 7 4C7 3.44772 7.44772 3 8 3C8.55228 3 9 3.44772 9 4ZM7 7C6.44772 7 6 7.44772 6 8C6 8.55229 6.44772 9 7 9V12C7 12.5523 7.44772 13 8 13H9C9.55228 13 10 12.5523 10 12C10 11.4477 9.55228 11 9 11V8C9 7.44772 8.55228 7 8 7H7Z" fill="currentColor"/>
    </symbol>

     <symbol id="circle" width="100%" height="100%" viewBox="0 0 12 12">
        <circle cx="6" cy="6" r="3" fill="currentColor"/>
        <g opacity="0.2">
            <circle cx="6" cy="6" r="6" fill="currentColor"/>
        </g>
    </symbol>

    </defs>
</svg>